<svg xmlns="http://www.w3.org/2000/svg" xmlns:xlink="http://www.w3.org/1999/xlink" width="500" zoomAndPan="magnify" viewBox="0 0 375 374.999991" height="500" preserveAspectRatio="xMidYMid meet" version="1.0"><path fill="#f4cec7" d="M 203.785156 301.667969 C 187.867188 301.535156 170.355469 299.914062 154.066406 300.515625 C 136.765625 301.183594 120.222656 306.953125 103.226562 309.660156 C 73.28125 313.816406 45.90625 293.835938 29.921875 270.078125 C 18.160156 253.246094 13.789062 232.222656 16.125 211.871094 C 16.558594 205.070312 19.355469 199.089844 21.882812 193.027344 C 25.257812 184.914062 29.011719 176.949219 34.492188 169.980469 C 52.511719 148.132812 77.984375 134.414062 99.484375 116.425781 C 101.585938 114.757812 103.042969 112.589844 104.277344 110.222656 C 110.988281 96.40625 117.941406 81.355469 132.671875 74.542969 C 156.664062 61.21875 188.125 65.058594 208.625 83.328125 C 213.734375 87.988281 218.003906 93.441406 223.1875 97.996094 C 238.128906 111.847656 252.894531 128.714844 273.675781 133.121094 C 295.671875 135.015625 307.109375 118.671875 330.6875 126.101562 C 353.503906 132.105469 361.226562 158.640625 360.226562 179.796875 C 358.53125 198.953125 350.839844 217.1875 340.550781 233.265625 C 307.15625 281.140625 261.855469 302.722656 203.785156 301.667969 Z M 203.785156 301.667969 " fill-opacity="1" fill-rule="nonzero"/></svg>