<svg xmlns="http://www.w3.org/2000/svg" xmlns:xlink="http://www.w3.org/1999/xlink" width="500" zoomAndPan="magnify" viewBox="0 0 375 374.999991" height="500" preserveAspectRatio="xMidYMid meet" version="1.0"><defs><clipPath id="f1438daece"><path d="M 0 28 L 375 28 L 375 310 L 0 310 Z M 0 28 " clip-rule="nonzero"/></clipPath><clipPath id="a00612625e"><path d="M -1.800781 52.710938 L 355.480469 23.164062 L 376.929688 282.527344 L 19.652344 312.074219 Z M -1.800781 52.710938 " clip-rule="nonzero"/></clipPath><clipPath id="07c4bcacf4"><path d="M 8 13 L 368 13 L 368 260 L 8 260 Z M 8 13 " clip-rule="nonzero"/></clipPath><clipPath id="372c8f1b75"><path d="M -1.800781 24.710938 L 355.480469 -4.835938 L 376.929688 254.527344 L 19.652344 284.074219 Z M -1.800781 24.710938 " clip-rule="nonzero"/></clipPath><clipPath id="481d28efc1"><path d="M 355.316406 -4.824219 L -1.960938 24.722656 L 19.488281 284.089844 L 376.765625 254.542969 Z M 355.316406 -4.824219 " clip-rule="nonzero"/></clipPath><clipPath id="f2ca37b837"><rect x="0" width="375" y="0" height="282"/></clipPath></defs><g clip-path="url(#f1438daece)"><g clip-path="url(#a00612625e)"><g transform="matrix(1, 0, 0, 1, 0, 28)"><g clip-path="url(#f2ca37b837)"><g clip-path="url(#07c4bcacf4)"><g clip-path="url(#372c8f1b75)"><g clip-path="url(#481d28efc1)"><path fill="#c5d8c9" d="M 180.460938 258.503906 C 196.8125 257.015625 214.671875 253.859375 231.46875 253.089844 C 249.308594 252.308594 266.804688 256.832031 284.503906 258.171875 C 315.640625 259.894531 342.074219 237.03125 356.488281 211.253906 C 367.148438 192.949219 369.851562 170.96875 365.722656 150.25 C 364.699219 143.292969 361.316406 137.386719 358.203125 131.371094 C 354.042969 123.316406 349.507812 115.449219 343.28125 108.75 C 322.902344 87.824219 295.554688 75.886719 271.925781 59.226562 C 269.621094 57.695312 267.9375 55.585938 266.46875 53.257812 C 258.398438 39.628906 249.972656 24.746094 234.25 18.996094 C 208.453125 7.339844 176.445312 13.964844 156.925781 34.484375 C 152.066406 39.710938 148.144531 45.675781 143.207031 50.800781 C 129.019531 66.308594 115.28125 84.898438 94.292969 91.195312 C 71.84375 95.015625 58.699219 79.1875 35.09375 88.828125 C 12.148438 96.9375 6.46875 124.871094 9.296875 146.53125 C 12.664062 166.078125 22.125 184.164062 34.0625 199.820312 C 72.460938 246.191406 120.863281 264.523438 180.460938 258.503906 Z M 180.460938 258.503906 " fill-opacity="1" fill-rule="nonzero"/></g></g></g></g></g></g></g></svg>