<svg xmlns="http://www.w3.org/2000/svg" xmlns:xlink="http://www.w3.org/1999/xlink" width="500" zoomAndPan="magnify" viewBox="0 0 375 374.999991" height="500" preserveAspectRatio="xMidYMid meet" version="1.0"><defs><clipPath id="60f7925692"><path d="M 7 39 L 369 39 L 369 313.5 L 7 313.5 Z M 7 39 " clip-rule="nonzero"/></clipPath></defs><g clip-path="url(#60f7925692)"><path fill="#c1d0ed" d="M 46.773438 255.15625 C 34.6875 250.671875 22.027344 245.785156 13.835938 235.828125 C 5.644531 225.890625 4.121094 209.195312 14.132812 201.09375 C 22.929688 193.957031 36.3125 196.453125 45.976562 202.390625 C 55.640625 208.332031 63.3125 217.09375 73.027344 222.929688 C 82.738281 228.78125 96.195312 231.050781 104.820312 223.707031 C 111.574219 217.941406 113.234375 207.878906 111.398438 199.1875 C 109.582031 190.496094 104.886719 182.71875 100.699219 174.890625 C 89.996094 154.945312 81.996094 133.539062 77.027344 111.460938 C 73.855469 97.398438 71.933594 82.542969 75.898438 68.6875 C 79.867188 54.835938 90.929688 42.175781 105.21875 40.1875 C 124.371094 37.5 141.582031 54.886719 146.222656 73.660156 C 150.863281 92.449219 146.429688 112.101562 142.863281 131.117188 C 139.296875 150.128906 136.769531 170.5625 144.785156 188.175781 C 152.804688 205.785156 175.246094 218.113281 192.164062 208.695312 C 207.472656 200.175781 210.605469 179.792969 211.003906 162.269531 C 211.402344 144.761719 211.785156 124.898438 224.789062 113.175781 C 233.792969 105.035156 247.925781 103.167969 258.746094 108.691406 C 269.570312 114.214844 276.359375 126.734375 275.058594 138.804688 C 272.601562 161.785156 244.773438 179.429688 250.519531 201.800781 C 254.503906 217.316406 272.964844 224.246094 288.980469 224.589844 C 305 224.9375 321.503906 221.265625 336.792969 226.082031 C 357.019531 232.4375 370.871094 254.757812 367.597656 275.710938 C 364.328125 296.664062 344.324219 313.6875 323.113281 313.5625 C 299.632812 313.441406 280.667969 295.660156 260.632812 283.398438 C 228.804688 263.917969 189.324219 258.0625 152.976562 265.925781 C 137.167969 269.335938 121.839844 279.015625 105.355469 276.421875 C 85.789062 273.335938 65.285156 262.03125 46.773438 255.15625 Z M 46.773438 255.15625 " fill-opacity="1" fill-rule="nonzero"/></g></svg>