<svg xmlns="http://www.w3.org/2000/svg" xmlns:xlink="http://www.w3.org/1999/xlink" width="500" zoomAndPan="magnify" viewBox="0 0 375 374.999991" height="500" preserveAspectRatio="xMidYMid meet" version="1.0"><path fill="#ccbccf" d="M 257.320312 241.394531 C 264.785156 236.417969 271.628906 231.441406 279.097656 226.464844 C 290.917969 221.488281 302.738281 215.886719 313.9375 209.042969 C 346.910156 189.757812 327 144.339844 293.40625 144.339844 C 276.605469 144.339844 259.1875 152.429688 242.386719 163.625 C 228.703125 121.941406 217.503906 79.011719 209.414062 35.460938 C 203.191406 0 142.222656 4.976562 138.488281 40.441406 C 132.890625 91.457031 132.890625 140.605469 143.464844 189.136719 C 132.265625 192.246094 121.070312 195.980469 109.871094 199.710938 C 86.226562 207.800781 56.363281 212.15625 36.457031 227.707031 C 12.191406 245.75 16.546875 283.703125 47.652344 290.546875 C 85.605469 298.632812 122.3125 273.125 159.019531 258.195312 C 159.640625 260.683594 160.265625 263.171875 161.507812 265.039062 C 167.730469 276.859375 175.195312 287.433594 183.90625 298.011719 C 193.859375 314.808594 204.4375 330.363281 219.367188 343.429688 C 245.5 366.449219 290.917969 331.609375 269.140625 301.746094 C 263.542969 294.277344 257.320312 286.8125 251.097656 279.96875 C 246.121094 272.503906 241.765625 264.414062 238.035156 255.707031 C 244.253906 251.351562 251.097656 246.375 257.320312 241.394531 Z M 257.320312 241.394531 " fill-opacity="1" fill-rule="nonzero"/></svg>