<svg xmlns="http://www.w3.org/2000/svg" xmlns:xlink="http://www.w3.org/1999/xlink" width="500" zoomAndPan="magnify" viewBox="0 0 375 374.999991" height="500" preserveAspectRatio="xMidYMid meet" version="1.0"><path fill="#ffcd92" d="M 317.347656 141.398438 C 285.972656 158.972656 251.28125 170.371094 217.839844 183.230469 C 249.941406 190.847656 336.441406 205.476562 353.332031 230.347656 C 361.632812 241.984375 356.296875 259.332031 340.660156 262.203125 C 293.652344 265.21875 250.207031 237.289062 214.917969 210.984375 C 212.976562 210.347656 215.183594 213.734375 215.28125 214.375 C 232.605469 255.894531 251.042969 297.226562 263.386719 340.34375 C 263.480469 340.667969 263.558594 340.996094 263.617188 341.328125 C 265.820312 353.566406 262.066406 364.59375 250.632812 362.605469 C 247.640625 362.085938 244.898438 360.6875 242.738281 358.679688 C 204.4375 323.082031 195.628906 267.753906 181.664062 220.921875 C 165.214844 260.6875 154.453125 303.828125 130.90625 340.644531 C 123.691406 351.425781 103.777344 354.222656 98.875 342.917969 C 81.941406 303.875 113.066406 242.265625 135.632812 208.765625 C 136.023438 207.839844 138.363281 205.320312 136.339844 205.210938 C -13.335938 224.039062 -3.359375 143.277344 157.011719 163.097656 C 59.664062 -4.519531 177.378906 -70.660156 187.585938 160.460938 C 187.660156 161.265625 187.777344 163.023438 189.03125 162.289062 C 274.914062 68.535156 388.320312 94.4375 317.347656 141.398438 Z M 317.347656 141.398438 " fill-opacity="1" fill-rule="nonzero"/></svg>